# xmcd
#
# Track frame offsets:
#	150
#	17651
#	35604
#	50709
#	65565
#	79453
#	88903
#	106993
#	123254
#	136711
#	152221
#
# Disc length: 2203 seconds
#
# Revision: 1
# Processed by: cddbd v1.5.2PL0 Copyright (c) Steve Scherf et al.
# Submitted via: audiograbber 1.83.01
#
DISCID=9408990b
DTITLE=Rockabye Baby! - Lullaby Renditions of The Pixies
DYEAR=2008
DGENRE=Lullaby
TTITLE0=Debaser
TTITLE1=Where Is My Mind?
TTITLE2=Monkey Gone to Heaven
TTITLE3=Caribou
TTITLE4=Velouria
TTITLE5=Ana
TTITLE6=Here Comes Your Man
TTITLE7=Alec Eiffel
TTITLE8=La La Love You
TTITLE9=Gigantic
TTITLE10=Wave of Mutilation
EXTD=
EXTT0=
EXTT1=
EXTT2=
EXTT3=
EXTT4=
EXTT5=
EXTT6=
EXTT7=
EXTT8=
EXTT9=
EXTT10=
PLAYORDER=
